<svg width="17" height="17" viewBox="0 0 17 17" fill="none" xmlns="http://www.w3.org/2000/svg">
<circle cx="8.625" cy="8.375" r="8.375" fill="#004530" fill-opacity="0.1"/>
<path d="M9.80479 7.82577C9.82979 7.95789 9.84763 8.09 9.84763 8.26137C9.84763 9.75743 8.84431 10.8179 7.33398 10.8179C5.88793 10.8179 4.7168 9.64675 4.7168 8.20068C4.7168 6.75462 5.88793 5.5835 7.33398 5.5835C8.04095 5.5835 8.63008 5.84057 9.0871 6.26904L8.37657 6.951C8.18375 6.76533 7.84457 6.54753 7.33398 6.54753C6.44136 6.54753 5.71296 7.28663 5.71296 8.20068C5.71296 9.11474 6.44136 9.85383 7.33398 9.85383C8.36942 9.85383 8.75862 9.10759 8.81931 8.72554H7.33398V7.82576H9.80479V7.82577ZM12.3321 7.91352V7.15381H11.5687V7.91352H10.809V8.67688H11.5687V9.43658H12.3321V8.67688H13.0918V7.91352H12.3321Z" fill="#004530"/>
</svg>
