<svg width="18" height="17" viewBox="0 0 18 17" fill="none" xmlns="http://www.w3.org/2000/svg">
<circle cx="8.7251" cy="8.375" r="8.375" fill="#004530" fill-opacity="0.1"/>
<path d="M9.00508 6.5066C7.8168 6.5066 6.85832 7.46508 6.85832 8.65336C6.85832 9.84165 7.8168 10.8001 9.00508 10.8001C10.1934 10.8001 11.1519 9.84165 11.1519 8.65336C11.1519 7.46508 10.1934 6.5066 9.00508 6.5066ZM9.00508 10.049C8.23718 10.049 7.60941 9.42313 7.60941 8.65336C7.60941 7.88359 8.23531 7.25769 9.00508 7.25769C9.77486 7.25769 10.4008 7.88359 10.4008 8.65336C10.4008 9.42313 9.77299 10.049 9.00508 10.049ZM11.7404 6.41878C11.7404 6.69717 11.5162 6.91951 11.2397 6.91951C10.9613 6.91951 10.7389 6.6953 10.7389 6.41878C10.7389 6.14226 10.9631 5.91806 11.2397 5.91806C11.5162 5.91806 11.7404 6.14226 11.7404 6.41878ZM13.1622 6.92698C13.1305 6.25624 12.9773 5.66209 12.4859 5.17258C11.9964 4.68306 11.4022 4.52985 10.7315 4.49622C10.0402 4.45699 7.96814 4.45699 7.27684 4.49622C6.60796 4.52799 6.01381 4.68119 5.52243 5.17071C5.03105 5.66022 4.87971 6.25437 4.84608 6.92511C4.80684 7.61641 4.80684 9.68844 4.84608 10.3797C4.87784 11.0505 5.03105 11.6446 5.52243 12.1342C6.01381 12.6237 6.60609 12.7769 7.27684 12.8105C7.96814 12.8497 10.0402 12.8497 10.7315 12.8105C11.4022 12.7787 11.9964 12.6255 12.4859 12.1342C12.9754 11.6446 13.1286 11.0505 13.1622 10.3797C13.2015 9.68844 13.2015 7.61828 13.1622 6.92698ZM12.2691 11.1215C12.1234 11.4877 11.8413 11.7698 11.4732 11.9174C10.922 12.136 9.61418 12.0856 9.00508 12.0856C8.39599 12.0856 7.08626 12.1342 6.53696 11.9174C6.17076 11.7717 5.88863 11.4896 5.74103 11.1215C5.52243 10.5703 5.57288 9.26245 5.57288 8.65336C5.57288 8.04427 5.5243 6.73454 5.74103 6.18524C5.88676 5.81903 6.16889 5.53691 6.53696 5.38931C7.08813 5.17071 8.39599 5.22115 9.00508 5.22115C9.61418 5.22115 10.9239 5.17258 11.4732 5.38931C11.8394 5.53504 12.1215 5.81717 12.2691 6.18524C12.4877 6.73641 12.4373 8.04427 12.4373 8.65336C12.4373 9.26245 12.4877 10.5722 12.2691 11.1215Z" fill="#004530"/>
</svg>
