<svg width="18" height="17" viewBox="0 0 18 17" fill="none" xmlns="http://www.w3.org/2000/svg">
<circle cx="9.17505" cy="8.375" r="8.375" fill="#004530" fill-opacity="0.1"/>
<path fill-rule="evenodd" clip-rule="evenodd" d="M8.38003 4.03265C6.49122 4.55763 5.2666 6.1596 5.2666 8.10511C5.2666 8.61029 5.33651 9.01661 5.51747 9.56364L5.76834 10.3219L5.51747 11.2091C5.37953 11.697 5.2666 12.1551 5.2666 12.2271C5.2666 12.3299 5.49237 12.2977 6.31639 12.0779L7.36609 11.7977L7.8967 12.0039C8.64335 12.2939 9.78428 12.357 10.5077 12.1485C11.3431 11.9076 11.9219 11.5568 12.4828 10.9517C13.6864 9.65299 13.977 7.86845 13.2389 6.30974C12.9193 5.635 12.1198 4.76583 11.5175 4.43831C10.5872 3.93247 9.3267 3.76951 8.38003 4.03265ZM10.968 4.96649C11.6132 5.26158 12.249 5.90343 12.5966 6.61049C12.8333 7.09202 12.8615 7.24979 12.8615 8.09192C12.8615 8.94253 12.8346 9.08909 12.5861 9.59483C11.7321 11.3322 9.75636 12.0345 7.93009 11.2497C7.47808 11.0554 7.44355 11.0538 6.87313 11.2015C6.54886 11.2854 6.26837 11.3389 6.24979 11.3204C6.2312 11.3019 6.29658 11.021 6.39498 10.6963C6.57037 10.1175 6.57037 10.1002 6.39564 9.80435C6.29762 9.63838 6.14733 9.22914 6.06166 8.89493C5.87815 8.17948 5.92627 7.55177 6.22601 6.75149C6.47225 6.09391 7.26005 5.26582 7.94028 4.94952C8.84837 4.52718 10.0218 4.53378 10.968 4.96649ZM7.52988 6.4661C7.11598 7.14414 7.38817 7.99051 8.32512 8.93923C9.5304 10.1597 11.0765 10.4766 11.4823 9.58663C11.6621 9.19257 11.6048 9.08786 11.0655 8.82358L10.5432 8.56769L10.2621 8.86826C10.0712 9.07231 9.92844 9.14969 9.81731 9.10926C9.45001 8.9758 8.83091 8.48051 8.60486 8.13933L8.36409 7.7759L8.56665 7.50219L8.76921 7.22859L8.53268 6.69419C8.31908 6.21191 8.26785 6.15979 8.00642 6.15979C7.78093 6.15979 7.67545 6.22755 7.52988 6.4661Z" fill="#004530"/>
</svg>
