<svg width="18" height="17" viewBox="0 0 18 17" fill="none" xmlns="http://www.w3.org/2000/svg">
<circle cx="9.27515" cy="8.375" r="8.375" fill="#004530" fill-opacity="0.1"/>
<path d="M12.9925 6.47898C13.05 6.28464 12.9925 6.1416 12.7157 6.1416H11.8C11.5668 6.1416 11.4595 6.26443 11.402 6.40124C11.402 6.40124 10.9356 7.53775 10.2764 8.2747C10.0634 8.4877 9.96541 8.55611 9.8488 8.55611C9.79128 8.55611 9.70266 8.4877 9.70266 8.29336V6.47898C9.70266 6.24577 9.63736 6.1416 9.44457 6.1416H8.00489C7.85874 6.1416 7.77168 6.25043 7.77168 6.35149C7.77168 6.57226 8.10128 6.62357 8.13548 7.24546V8.59497C8.13548 8.89037 8.08262 8.94479 7.96602 8.94479C7.65507 8.94479 6.89947 7.80361 6.45171 6.49764C6.36153 6.24421 6.27291 6.1416 6.03815 6.1416H5.12241C4.86121 6.1416 4.80835 6.26443 4.80835 6.40124C4.80835 6.64378 5.1193 7.8487 6.25581 9.44075C7.01296 10.5275 8.07951 11.1168 9.04967 11.1168C9.63269 11.1168 9.70421 10.9862 9.70421 10.7607C9.70421 9.72216 9.65135 9.62421 9.94364 9.62421C10.0789 9.62421 10.3121 9.69262 10.8563 10.2166C11.4782 10.8385 11.5808 11.1168 11.929 11.1168H12.8448C13.106 11.1168 13.2381 10.9862 13.1619 10.7281C12.9878 10.1855 11.8109 9.06917 11.758 8.99454C11.6228 8.82041 11.6616 8.74267 11.758 8.5872C11.7596 8.58565 12.8774 7.01225 12.9925 6.47898Z" fill="#004530"/>
</svg>
