<svg width="24" height="24" viewBox="0 0 24 24" fill="none" xmlns="http://www.w3.org/2000/svg">
<path d="M20.374 1.8023L20.374 1.80232L2.54906 8.54899L2.53723 8.55346V8.55221C2.34174 8.62936 2.17427 8.76418 2.05714 8.93884C1.93832 9.11601 1.8771 9.32553 1.88182 9.5388C1.88654 9.75206 1.95698 9.95868 2.08352 10.1304C2.21001 10.3021 2.38639 10.4305 2.58859 10.4982C2.58867 10.4983 2.58875 10.4983 2.58882 10.4983L2.60659 10.5039L2.60968 10.5049L2.60961 10.5051L8.72586 13.1168C8.83909 13.1509 8.95926 13.1548 9.07448 13.1282C9.19028 13.1014 9.29703 13.0448 9.38409 12.9639L20.374 1.8023ZM20.374 1.8023C20.5607 1.73131 20.7639 1.71578 20.9592 1.7576C21.1545 1.79941 21.3335 1.89676 21.4747 2.03794M20.374 1.8023L21.4747 2.03794M21.4747 2.03794C21.616 2.17977 21.7131 2.3595 21.7544 2.55538C21.7957 2.75127 21.7794 2.95492 21.7074 3.14171L21.7073 3.1419L14.9618 20.9613L14.9928 20.9737M21.4747 2.03794L21.7386 3.15373L14.9928 20.9737M14.9928 20.9737L14.9615 20.9619L14.9616 20.9616C14.8821 21.1596 14.7449 21.3292 14.5678 21.4482C14.3906 21.5674 14.1816 21.6304 13.9681 21.6292H13.9679H13.9241M14.9928 20.9737C14.9108 21.1781 14.7692 21.3531 14.5864 21.476C14.4037 21.5988 14.1881 21.6639 13.9679 21.6626H13.9234M13.9234 21.6626L13.9249 21.6292C13.9246 21.6292 13.9244 21.6292 13.9241 21.6292M13.9234 21.6626V21.6292H13.9241M13.9234 21.6626C13.4871 21.643 13.1262 21.3516 12.9836 20.9385C12.9805 20.9301 12.9778 20.922 12.9752 20.9131L10.3618 14.7916M13.9241 21.6292C13.503 21.6099 13.1536 21.3286 13.0152 20.9276L13.015 20.927C13.0121 20.9192 13.0096 20.9118 13.0072 20.9035L13.0074 20.9035L13.0059 20.9L10.3932 14.7802M10.3932 14.7802C10.3934 14.7808 10.3936 14.7813 10.3938 14.7819L10.3618 14.7916M10.3932 14.7802C10.3592 14.667 10.3553 14.5468 10.3819 14.4316C10.4086 14.3158 10.4653 14.209 10.5462 14.122L10.3493 14.4241C10.3213 14.5456 10.3255 14.6723 10.3618 14.7916M10.3932 14.7802L10.3925 14.7785L10.3618 14.7916M19.2022 3.81541L9.38412 12.9638L10.5462 14.1219L19.6951 4.30826C19.6952 4.30812 19.6954 4.30797 19.6955 4.30783C19.7277 4.27556 19.7532 4.23729 19.7706 4.1952C19.7882 4.15292 19.7972 4.1076 19.7972 4.06184C19.7972 4.01607 19.7882 3.97076 19.7706 3.92847C19.7531 3.88619 19.7275 3.84777 19.6951 3.81541C19.6627 3.78305 19.6243 3.75738 19.582 3.73987C19.5398 3.72235 19.4944 3.71334 19.4487 3.71334C19.4029 3.71334 19.3576 3.72235 19.3153 3.73987C19.2732 3.75731 19.2349 3.78283 19.2027 3.81499C19.2025 3.81513 19.2024 3.81527 19.2022 3.81541Z" fill="white" stroke="white" stroke-width="0.0668384"/>
</svg>
